<svg width="202" height="38" viewBox="0 0 202 38" fill="none" xmlns="http://www.w3.org/2000/svg">
<path d="M7.8125 12.4609V17.8047H16.1328C16.5078 17.8047 16.7891 17.8672 16.9766 17.9922C17.3828 18.2734 17.8047 18.6094 18.2422 19C18.6797 19.3906 19.1406 19.8594 19.625 20.4062C19.7812 20.6094 19.8594 20.7734 19.8594 20.8984C19.8594 21.0391 19.7812 21.1953 19.625 21.3672C19.1406 21.9141 18.6797 22.3828 18.2422 22.7734C17.8047 23.1641 17.3828 23.5 16.9766 23.7812C16.7578 23.9062 16.4766 23.9688 16.1328 23.9688H7.8125V35.7578C7.8125 36.2266 7.71094 36.5547 7.50781 36.7422C7.32031 36.9141 6.99219 37 6.52344 37H1.53125C1.0625 37 0.726562 36.9141 0.523438 36.7422C0.335938 36.5547 0.242188 36.2266 0.242188 35.7578V9.67188C0.242188 8.10938 0.382812 6.875 0.664062 5.96875C0.960938 5.04688 1.52344 4.39062 2.35156 4C3.19531 3.59375 4.42188 3.39062 6.03125 3.39062H17.0938C17.4688 3.39062 17.75 3.45312 17.9375 3.57812C18.3438 3.85938 18.7656 4.19531 19.2031 4.58594C19.6406 4.97656 20.1016 5.44531 20.5859 5.99219C20.7422 6.19531 20.8203 6.35938 20.8203 6.48438C20.8203 6.625 20.7422 6.78125 20.5859 6.95312C20.1016 7.5 19.6406 7.96875 19.2031 8.35938C18.7656 8.75 18.3438 9.08594 17.9375 9.36719C17.7188 9.49219 17.4375 9.55469 17.0938 9.55469H10.4844C9.45312 9.55469 8.75 9.77344 8.375 10.2109C8 10.6484 7.8125 11.3984 7.8125 12.4609ZM23.5156 5.125C23.5156 4.92188 23.5781 4.74219 23.7031 4.58594C23.8281 4.42969 23.9922 4.22656 24.1953 3.97656C24.6328 3.47656 25.1406 2.95312 25.7188 2.40625C26.2969 1.84375 26.8828 1.30469 27.4766 0.789062C27.8516 0.492187 28.1328 0.34375 28.3203 0.34375C28.5078 0.34375 28.7969 0.492187 29.1875 0.789062C30.4531 1.88281 31.5312 2.94531 32.4219 3.97656C32.625 4.21094 32.7891 4.41406 32.9141 4.58594C33.0547 4.74219 33.125 4.92188 33.125 5.125C33.125 5.32812 33.0547 5.50781 32.9141 5.66406C32.7891 5.82031 32.6172 6.03125 32.3984 6.29688C31.9766 6.78125 31.4844 7.30469 30.9219 7.86719C30.3594 8.41406 29.7812 8.9375 29.1875 9.4375C28.9688 9.625 28.7969 9.75 28.6719 9.8125C28.5469 9.85938 28.4297 9.88281 28.3203 9.88281C28.2109 9.88281 28.0938 9.85938 27.9688 9.8125C27.8594 9.75 27.6797 9.625 27.4297 9.4375C26.8047 8.9375 26.2188 8.41406 25.6719 7.86719C25.125 7.30469 24.6328 6.76562 24.1953 6.25C23.9922 6 23.8281 5.80469 23.7031 5.66406C23.5781 5.50781 23.5156 5.32812 23.5156 5.125ZM32 35.7578C32 36.2266 31.8984 36.5547 31.6953 36.7422C31.5078 36.9141 31.1797 37 30.7109 37H25.8828C25.4141 37 25.0781 36.9141 24.875 36.7422C24.6875 36.5547 24.5938 36.2266 24.5938 35.7578V14.2422C24.5938 13.7734 24.6875 13.4531 24.875 13.2812C25.0781 13.0938 25.4141 13 25.8828 13H30.7109C31.1797 13 31.5078 13.0938 31.6953 13.2812C31.8984 13.4531 32 13.7734 32 14.2422V35.7578ZM45.0547 37.5859C43.3828 37.5859 41.9922 37.4453 40.8828 37.1641C39.7891 36.8828 38.9062 36.5469 38.2344 36.1562C37.5781 35.75 37.0625 35.3828 36.6875 35.0547C36.4062 34.7891 36.375 34.4922 36.5938 34.1641L38.9844 30.625C39.3281 30.125 39.7188 30.0938 40.1562 30.5312C40.6094 30.9688 41.2188 31.3984 41.9844 31.8203C42.7656 32.2266 43.7344 32.4297 44.8906 32.4297C45.9219 32.4297 46.7656 32.2578 47.4219 31.9141C48.0938 31.5547 48.4297 31.0391 48.4297 30.3672C48.4297 29.8984 48.2812 29.5156 47.9844 29.2188C47.6875 28.9219 47.1641 28.6172 46.4141 28.3047C45.6641 27.9922 44.6172 27.5938 43.2734 27.1094C41.2891 26.3906 39.7891 25.5234 38.7734 24.5078C37.7578 23.4922 37.25 22.0078 37.25 20.0547C37.25 18.2578 37.7422 16.7969 38.7266 15.6719C39.7266 14.5469 41 13.7266 42.5469 13.2109C44.1094 12.6797 45.7344 12.4141 47.4219 12.4141C49.5625 12.4141 51.0625 12.6172 51.9219 13.0234C52.7969 13.4141 53.3594 13.7188 53.6094 13.9375C53.8438 14.1406 54.0078 14.375 54.1016 14.6406C54.3047 15.25 54.4609 16.0547 54.5703 17.0547C54.6328 17.6328 54.4844 18.0156 54.125 18.2031C53.9375 18.3125 53.6406 18.4297 53.2344 18.5547C52.8281 18.6797 52.4219 18.7891 52.0156 18.8828C51.6094 18.9766 51.3047 19.0234 51.1016 19.0234C51.0391 19.0234 50.9688 19.0078 50.8906 18.9766C50.8281 18.9297 50.7109 18.8281 50.5391 18.6719C50.3359 18.4688 49.9844 18.2344 49.4844 17.9688C49 17.7031 48.3281 17.5703 47.4688 17.5703C46.625 17.5703 45.9141 17.7109 45.3359 17.9922C44.7734 18.2578 44.4922 18.7344 44.4922 19.4219C44.4922 20.1719 44.8516 20.7344 45.5703 21.1094C46.3047 21.4844 47.5078 21.9688 49.1797 22.5625C50.4922 23.0156 51.6328 23.5156 52.6016 24.0625C53.5859 24.5938 54.3438 25.2969 54.875 26.1719C55.4062 27.0312 55.6719 28.1953 55.6719 29.6641C55.6719 31.5703 55.1484 33.1094 54.1016 34.2812C53.0703 35.4375 51.7422 36.2812 50.1172 36.8125C48.5078 37.3281 46.8203 37.5859 45.0547 37.5859ZM67.6719 35.7578C67.6719 36.2266 67.5703 36.5547 67.3672 36.7422C67.1797 36.9141 66.8516 37 66.3828 37H61.5547C61.0859 37 60.75 36.9141 60.5469 36.7422C60.3594 36.5547 60.2656 36.2266 60.2656 35.7578V4.04688C60.2656 3.67188 60.3438 3.38281 60.5 3.17969C61.1562 2.32031 62.1172 1.39063 63.3828 0.390625C63.6016 0.234375 63.7969 0.15625 63.9688 0.15625C64.1719 0.15625 64.3672 0.234375 64.5547 0.390625C65.2266 0.90625 65.7891 1.39063 66.2422 1.84375C66.7109 2.29687 67.1094 2.74219 67.4375 3.17969C67.5938 3.38281 67.6719 3.67188 67.6719 4.04688V15.4141H67.7656C68.1094 14.9609 68.5547 14.5078 69.1016 14.0547C69.6484 13.5859 70.375 13.1953 71.2812 12.8828C72.2031 12.5703 73.375 12.4141 74.7969 12.4141C76.2344 12.4141 77.6172 12.7109 78.9453 13.3047C80.2734 13.8984 81.3594 14.8984 82.2031 16.3047C83.0469 17.7109 83.4688 19.6328 83.4688 22.0703V35.7578C83.4688 36.2266 83.3672 36.5547 83.1641 36.7422C82.9766 36.9141 82.6484 37 82.1797 37H77.3516C76.8828 37 76.5469 36.9141 76.3438 36.7422C76.1562 36.5547 76.0625 36.2266 76.0625 35.7578V23.3594C76.0625 21.625 75.7031 20.3672 74.9844 19.5859C74.2656 18.7891 73.2891 18.3906 72.0547 18.3906C70.8359 18.3906 69.8906 18.6562 69.2188 19.1875C68.5469 19.7188 68.0312 20.3906 67.6719 21.2031V35.7578ZM100.812 37.5859C98.7969 37.5859 97.1016 37.4375 95.7266 37.1406C94.3516 36.8438 93.1953 36.4766 92.2578 36.0391C91.3203 35.6016 90.5 35.1641 89.7969 34.7266V4.04688C89.7969 3.67188 89.875 3.38281 90.0312 3.17969C90.6875 2.32031 91.6484 1.39063 92.9141 0.390625C93.1328 0.234375 93.3281 0.15625 93.5 0.15625C93.7031 0.15625 93.8984 0.234375 94.0859 0.390625C94.7578 0.90625 95.3203 1.39063 95.7734 1.84375C96.2422 2.29687 96.6406 2.74219 96.9688 3.17969C97.125 3.38281 97.2031 3.67188 97.2031 4.04688V15.4141H97.2969C97.9219 14.6172 98.7891 13.9219 99.8984 13.3281C101.008 12.7188 102.555 12.4141 104.539 12.4141C106.758 12.4141 108.586 12.9297 110.023 13.9609C111.461 14.9766 112.531 16.3828 113.234 18.1797C113.938 19.9609 114.289 22.0078 114.289 24.3203C114.289 26.8203 113.875 29.0781 113.047 31.0938C112.219 33.0938 110.82 34.6797 108.852 35.8516C106.898 37.0078 104.219 37.5859 100.812 37.5859ZM101.117 31.9141C102.93 31.9141 104.312 31.3125 105.266 30.1094C106.219 28.8906 106.695 27.1562 106.695 24.9062C106.695 22.625 106.266 20.9688 105.406 19.9375C104.562 18.9062 103.336 18.3906 101.727 18.3906C100.43 18.3906 99.4375 18.6562 98.75 19.1875C98.0781 19.7188 97.5625 20.3906 97.2031 21.2031V30.8828C97.5469 31.1328 98.0312 31.3672 98.6562 31.5859C99.2969 31.8047 100.117 31.9141 101.117 31.9141ZM130.836 37.5859C126.898 37.5859 123.781 36.5391 121.484 34.4453C119.188 32.3516 118.039 29.2344 118.039 25.0938C118.039 20.8438 119.227 17.6719 121.602 15.5781C123.992 13.4688 127.18 12.4141 131.164 12.4141C135.008 12.4141 138.086 13.4531 140.398 15.5312C142.711 17.5938 143.867 20.6406 143.867 24.6719C143.867 28.875 142.711 32.0781 140.398 34.2812C138.086 36.4844 134.898 37.5859 130.836 37.5859ZM131.07 31.9141C132.789 31.9141 134.086 31.3828 134.961 30.3203C135.836 29.2422 136.273 27.4062 136.273 24.8125C136.273 22.3438 135.828 20.6094 134.938 19.6094C134.062 18.5938 132.758 18.0859 131.023 18.0859C129.352 18.0859 128.031 18.6328 127.062 19.7266C126.109 20.8047 125.633 22.5625 125.633 25C125.633 27.5469 126.086 29.3359 126.992 30.3672C127.914 31.3984 129.273 31.9141 131.07 31.9141ZM160.414 37.5859C156.477 37.5859 153.359 36.5391 151.062 34.4453C148.766 32.3516 147.617 29.2344 147.617 25.0938C147.617 20.8438 148.805 17.6719 151.18 15.5781C153.57 13.4688 156.758 12.4141 160.742 12.4141C164.586 12.4141 167.664 13.4531 169.977 15.5312C172.289 17.5938 173.445 20.6406 173.445 24.6719C173.445 28.875 172.289 32.0781 169.977 34.2812C167.664 36.4844 164.477 37.5859 160.414 37.5859ZM160.648 31.9141C162.367 31.9141 163.664 31.3828 164.539 30.3203C165.414 29.2422 165.852 27.4062 165.852 24.8125C165.852 22.3438 165.406 20.6094 164.516 19.6094C163.641 18.5938 162.336 18.0859 160.602 18.0859C158.93 18.0859 157.609 18.6328 156.641 19.7266C155.688 20.8047 155.211 22.5625 155.211 25C155.211 27.5469 155.664 29.3359 156.57 30.3672C157.492 31.3984 158.852 31.9141 160.648 31.9141ZM185.891 35.7578C185.891 36.2266 185.789 36.5547 185.586 36.7422C185.398 36.9141 185.07 37 184.602 37H179.773C179.305 37 178.969 36.9141 178.766 36.7422C178.578 36.5547 178.484 36.2266 178.484 35.7578V4.04688C178.484 3.67188 178.562 3.38281 178.719 3.17969C179.375 2.32031 180.336 1.39063 181.602 0.390625C181.82 0.234375 182.016 0.15625 182.188 0.15625C182.391 0.15625 182.586 0.234375 182.773 0.390625C183.445 0.90625 184.008 1.39063 184.461 1.84375C184.93 2.29687 185.328 2.74219 185.656 3.17969C185.812 3.38281 185.891 3.67188 185.891 4.04688V22.4453H186.172C188.547 22.4453 190.156 22.0234 191 21.1797C191.859 20.3203 192.289 19.1328 192.289 17.6172V16.3516C192.289 15.9766 192.367 15.6875 192.523 15.4844C193.18 14.625 194.141 13.6953 195.406 12.6953C195.625 12.5391 195.82 12.4609 195.992 12.4609C196.195 12.4609 196.391 12.5391 196.578 12.6953C197.25 13.2109 197.812 13.6953 198.266 14.1484C198.734 14.6016 199.133 15.0469 199.461 15.4844C199.617 15.6875 199.695 15.9766 199.695 16.3516V17.6172C199.695 18.5078 199.516 19.4922 199.156 20.5703C198.812 21.6484 198.18 22.6016 197.258 23.4297C196.336 24.2578 195.023 24.7422 193.32 24.8828V25C194.633 25.5781 195.766 26.3438 196.719 27.2969C197.672 28.25 198.469 29.2734 199.109 30.3672C199.75 31.4453 200.242 32.4844 200.586 33.4844C200.945 34.4688 201.18 35.3047 201.289 35.9922C201.398 36.6641 201.172 37 200.609 37H194.445C193.914 37 193.609 36.6797 193.531 36.0391C193.422 35.3047 193.18 34.4453 192.805 33.4609C192.445 32.4609 191.953 31.4844 191.328 30.5312C190.719 29.5781 189.977 28.7891 189.102 28.1641C188.242 27.5234 187.266 27.2031 186.172 27.2031H185.891V35.7578Z" fill="#5EBEF2"/>
</svg>
