<svg width="31" height="46" viewBox="0 0 31 46" fill="none" xmlns="http://www.w3.org/2000/svg">
<path d="M30.8409 26.2749C30.8365 26.2381 30.8254 26.203 30.8083 26.1719C30.7911 26.1409 30.7685 26.1147 30.7419 26.0952C30.7153 26.0757 30.6854 26.0633 30.6543 26.0591C30.6233 26.0548 30.5918 26.0587 30.5622 26.0705C28.3729 26.9325 26.5225 28.7102 25.3562 31.0722C25.3381 31.115 25.3306 31.1631 25.3347 31.2108C25.3387 31.2585 25.3541 31.3038 25.379 31.3415C25.4039 31.3793 25.4373 31.4078 25.4754 31.4239C25.5134 31.4399 25.5545 31.4428 25.5939 31.4322L27.0696 31.004C27.115 30.9914 27.1627 30.9969 27.2053 31.0195C27.2478 31.0421 27.283 31.0807 27.3053 31.1292C27.3276 31.1778 27.3359 31.2338 27.3289 31.2885C27.3219 31.3432 27.2999 31.3937 27.2664 31.4322L26.7417 32.0452C23.6427 35.3537 22.9868 35.9376 20.1092 35.9376C19.5382 35.9425 18.9782 35.7513 18.4967 35.387C18.0152 35.0227 17.6327 34.5008 17.3955 33.8844C17.1143 33.0461 16.9777 32.1494 16.9938 31.2473C16.9528 29.0481 16.9118 26.849 16.9118 24.6595L16.7888 14.2962H21.0848C21.2852 14.6787 21.5852 14.9733 21.9393 15.1354C22.2934 15.2974 22.6823 15.3182 23.0472 15.1945C23.4121 15.0708 23.7331 14.8093 23.9617 14.4497C24.1902 14.0901 24.3139 13.6519 24.3139 13.2015C24.3139 12.7511 24.1902 12.3129 23.9617 11.9533C23.7331 11.5937 23.4121 11.3323 23.0472 11.2085C22.6823 11.0848 22.2934 11.1056 21.9393 11.2677C21.5852 11.4297 21.2852 11.7243 21.0848 12.1068H16.7806C16.7806 11.1337 16.7806 10.1606 16.7806 9.18754C17.6786 8.84012 18.4427 8.12392 18.9356 7.16768C19.4285 6.21145 19.6179 5.07788 19.4697 3.97075C19.3216 2.86362 18.8455 1.85553 18.1272 1.1277C17.4088 0.399857 16.4953 0 15.5509 0C14.6064 0 13.6929 0.399857 12.9745 1.1277C12.2562 1.85553 11.7802 2.86362 11.632 3.97075C11.4838 5.07788 11.6732 6.21145 12.1661 7.16768C12.659 8.12392 13.4231 8.84012 14.3211 9.18754C14.3211 10.1606 14.3211 11.1337 14.3211 12.1068H9.91034C9.7099 11.7243 9.40993 11.4297 9.05585 11.2677C8.70176 11.1056 8.31283 11.0848 7.94792 11.2085C7.583 11.3323 7.26198 11.5937 7.03343 11.9533C6.80489 12.3129 6.68126 12.7511 6.68126 13.2015C6.68126 13.6519 6.80489 14.0901 7.03343 14.4497C7.26198 14.8093 7.583 15.0708 7.94792 15.1945C8.31283 15.3182 8.70176 15.2974 9.05585 15.1354C9.40993 14.9733 9.7099 14.6787 9.91034 14.2962H14.1981L14.0751 24.6595C14.0751 26.8587 14.0341 29.0481 14.0014 31.2473C14.0146 32.15 13.8752 33.0467 13.5914 33.8844C13.3564 34.5008 12.9757 35.023 12.4954 35.3875C12.0151 35.752 11.456 35.9431 10.886 35.9376C8.00011 35.9376 7.34423 35.3537 4.24523 32.0452L3.73693 31.4614C3.70342 31.4229 3.68147 31.3724 3.67445 31.3177C3.66742 31.263 3.67571 31.207 3.69804 31.1584C3.72037 31.1098 3.75551 31.0713 3.79808 31.0487C3.84064 31.0261 3.88828 31.0206 3.93369 31.0332L5.40941 31.4614C5.44879 31.472 5.4899 31.4691 5.52795 31.4531C5.566 31.437 5.59943 31.4085 5.62434 31.3707C5.64926 31.333 5.66463 31.2877 5.66867 31.24C5.67271 31.1923 5.66525 31.1442 5.64716 31.1013C4.4741 28.7388 2.6138 26.9669 0.416568 26.1192C0.387429 26.1073 0.356403 26.1033 0.325798 26.1076C0.295193 26.1119 0.265798 26.1243 0.239798 26.1439C0.213799 26.1636 0.191865 26.1899 0.175628 26.221C0.159392 26.2521 0.149272 26.2871 0.14602 26.3235C0.0148452 27.4718 -0.345885 31.7338 0.965862 34.1082C0.992403 34.1408 1.02586 34.1644 1.06272 34.1765C1.09958 34.1885 1.13849 34.1886 1.17537 34.1766C1.21225 34.1647 1.24575 34.1412 1.27236 34.1086C1.29896 34.076 1.3177 34.0355 1.32659 33.9914L1.77751 32.6485C1.79224 32.5993 1.81946 32.5567 1.85543 32.5266C1.8914 32.4964 1.93434 32.4802 1.97837 32.4802C2.02239 32.4802 2.06534 32.4964 2.1013 32.5266C2.13727 32.5567 2.16449 32.5993 2.17923 32.6485C2.63834 34.2444 4.32722 38.234 10.0169 41.2117C10.2219 41.2992 14.2883 42.9729 15.2803 45.464C15.3 45.5112 15.3303 45.551 15.368 45.5787C15.4057 45.6065 15.4491 45.6212 15.4935 45.6212C15.5378 45.6212 15.5813 45.6065 15.6189 45.5787C15.6566 45.551 15.687 45.5112 15.7066 45.464C16.7068 42.9729 20.7732 41.2992 20.97 41.2117C26.6679 38.234 28.3486 34.2444 28.8159 32.6485C28.8321 32.6024 28.8594 32.563 28.8944 32.5353C28.9294 32.5076 28.9706 32.4929 29.0127 32.4929C29.0547 32.4929 29.0959 32.5076 29.1309 32.5353C29.1659 32.563 29.1932 32.6024 29.2094 32.6485C29.357 33.0767 29.5374 33.6216 29.6603 33.9914C29.6784 34.0321 29.7056 34.0663 29.7388 34.09C29.772 34.1138 29.8101 34.1264 29.8489 34.1264C29.8877 34.1264 29.9258 34.1138 29.959 34.09C29.9922 34.0663 30.0194 34.0321 30.0375 33.9914C31.3492 31.6852 30.9885 27.4231 30.8409 26.2749ZM15.5017 6.62834C15.1774 6.62834 14.8603 6.5142 14.5907 6.30035C14.3211 6.0865 14.1109 5.78255 13.9868 5.42694C13.8627 5.07132 13.8302 4.68002 13.8935 4.3025C13.9568 3.92498 14.1129 3.5782 14.3422 3.30603C14.5715 3.03385 14.8637 2.8485 15.1818 2.7734C15.4998 2.69831 15.8295 2.73685 16.1291 2.88415C16.4288 3.03145 16.6848 3.2809 16.865 3.60094C17.0452 3.92099 17.1413 4.29726 17.1413 4.68217C17.1413 5.19833 16.9686 5.69334 16.6611 6.05832C16.3536 6.4233 15.9365 6.62834 15.5017 6.62834Z" fill="white"/>
</svg>
