<svg width="49" height="49" viewBox="0 0 49 49" fill="none" xmlns="http://www.w3.org/2000/svg">
<path d="M27.7459 42.5C27.3943 43.1062 26.8896 43.6093 26.2823 43.9591C25.6751 44.3088 24.9866 44.4929 24.2859 44.4929C23.5851 44.4929 22.8967 44.3088 22.2894 43.9591C21.6822 43.6093 21.1775 43.1062 20.8259 42.5M36.2859 16.5C36.2859 13.3174 35.0216 10.2652 32.7712 8.01472C30.5207 5.76428 27.4685 4.5 24.2859 4.5C21.1033 4.5 18.051 5.76428 15.8006 8.01472C13.5502 10.2652 12.2859 13.3174 12.2859 16.5C12.2859 30.5 6.28589 34.5 6.28589 34.5H42.2859C42.2859 34.5 36.2859 30.5 36.2859 16.5Z" stroke="white" stroke-width="4" stroke-linecap="round" stroke-linejoin="round"/>
</svg>
