<svg width="40" height="37" viewBox="0 0 40 37" fill="none" xmlns="http://www.w3.org/2000/svg">
<path d="M8.59704 0.330962C8.82557 0.114201 9.1355 -0.00756836 9.45866 -0.00756836C9.78181 -0.00756836 10.0917 0.114201 10.3203 0.330962L14.3347 4.1396L5.29924 12.7119L1.28486 8.90561C1.17136 8.7982 1.08132 8.67061 1.01988 8.53014C0.958443 8.38967 0.926819 8.23908 0.926819 8.08699C0.926819 7.93491 0.958443 7.78431 1.01988 7.64384C1.08132 7.50337 1.17136 7.37578 1.28486 7.26838L8.59704 0.330962ZM7.02248 14.3468L16.0579 5.77452L31.901 20.8056H31.3964C31.0732 20.8056 30.7632 20.9274 30.5347 21.1442C30.3061 21.3611 30.1777 21.6552 30.1777 21.9618V23.1181H28.959C28.6358 23.1181 28.3258 23.2399 28.0973 23.4567C27.8687 23.6735 27.7403 23.9676 27.7403 24.2743V25.4305H26.5216C26.1984 25.4305 25.8884 25.5523 25.6599 25.7692C25.4313 25.986 25.3029 26.2801 25.3029 26.5868V27.743H24.0842C23.761 27.743 23.451 27.8648 23.2225 28.0816C22.9939 28.2985 22.8655 28.5926 22.8655 28.8992V29.3779L7.02248 14.3468ZM25.2249 31.6164C25.2762 31.487 25.3026 31.3499 25.3029 31.2117V30.0555H26.5216C26.8448 30.0555 27.1548 29.9337 27.3834 29.7168C27.6119 29.5 27.7403 29.2059 27.7403 28.8992V27.743H28.959C29.2822 27.743 29.5922 27.6212 29.8208 27.4043C30.0493 27.1875 30.1777 26.8934 30.1777 26.5868V25.4305H31.3964C31.7196 25.4305 32.0296 25.3087 32.2582 25.0919C32.4867 24.875 32.6151 24.5809 32.6151 24.2743V23.1181H33.8338C33.9795 23.1178 34.124 23.0927 34.2604 23.0441L34.6966 23.4557C34.8128 23.5666 34.904 23.6988 34.9648 23.8442L39.8395 35.4065C39.9282 35.6166 39.9499 35.8468 39.902 36.0685C39.854 36.2903 39.7386 36.4937 39.5699 36.6538C39.4012 36.8138 39.1867 36.9234 38.953 36.9688C38.7193 37.0143 38.4767 36.9937 38.2552 36.9096L26.0683 32.2847C25.9151 32.227 25.7757 32.1405 25.6588 32.0303L25.2249 31.6164Z" fill="white"/>
</svg>
