<svg width="286" height="287" viewBox="0 0 286 287" fill="none" xmlns="http://www.w3.org/2000/svg">
<rect width="286" height="286.872" rx="143" fill="white"/>
<path d="M143 143C131.633 143 121.903 138.953 113.808 130.858C105.714 122.764 101.667 113.033 101.667 101.667C101.667 90.2999 105.714 80.5694 113.808 72.4749C121.903 64.3805 131.633 60.3333 143 60.3333C154.367 60.3333 164.097 64.3805 172.192 72.4749C180.286 80.5694 184.333 90.2999 184.333 101.667C184.333 113.033 180.286 122.764 172.192 130.858C164.097 138.953 154.367 143 143 143ZM60.3333 225.667V196.733C60.3333 190.878 61.8403 185.496 64.8541 180.587C67.868 175.679 71.8722 171.933 76.8666 169.35C87.5444 164.011 98.3944 160.007 109.417 157.337C120.439 154.668 131.633 153.333 143 153.333C154.367 153.333 165.561 154.668 176.583 157.337C187.606 160.007 198.456 164.011 209.133 169.35C214.128 171.933 218.132 175.679 221.146 180.587C224.16 185.496 225.667 190.878 225.667 196.733V225.667H60.3333ZM81 205H205V196.733C205 194.839 204.526 193.117 203.579 191.567C202.632 190.017 201.383 188.811 199.833 187.95C190.533 183.3 181.147 179.812 171.675 177.487C162.203 175.162 152.644 174 143 174C133.356 174 123.797 175.162 114.325 177.487C104.853 179.812 95.4666 183.3 86.1666 187.95C84.6166 188.811 83.368 190.017 82.4208 191.567C81.4736 193.117 81 194.839 81 196.733V205ZM143 122.333C148.683 122.333 153.549 120.31 157.596 116.262C161.643 112.215 163.667 107.35 163.667 101.667C163.667 95.9833 161.643 91.118 157.596 87.0708C153.549 83.0235 148.683 80.9999 143 80.9999C137.317 80.9999 132.451 83.0235 128.404 87.0708C124.357 91.118 122.333 95.9833 122.333 101.667C122.333 107.35 124.357 112.215 128.404 116.262C132.451 120.31 137.317 122.333 143 122.333Z" fill="#1D1B20"/>
</svg>
