<svg width="292" height="293" viewBox="0 0 292 293" fill="none" xmlns="http://www.w3.org/2000/svg">
<rect x="1.5" y="1.5" width="289" height="289.872" rx="144.5" fill="white" stroke="#5EBEF2" stroke-width="3"/>
<path d="M146 146C134.633 146 124.903 141.953 116.808 133.858C108.714 125.764 104.667 116.033 104.667 104.667C104.667 93.2999 108.714 83.5694 116.808 75.4749C124.903 67.3805 134.633 63.3333 146 63.3333C157.367 63.3333 167.097 67.3805 175.192 75.4749C183.286 83.5694 187.333 93.2999 187.333 104.667C187.333 116.033 183.286 125.764 175.192 133.858C167.097 141.953 157.367 146 146 146ZM63.3333 228.667V199.733C63.3333 193.878 64.8403 188.496 67.8541 183.587C70.868 178.679 74.8722 174.933 79.8666 172.35C90.5444 167.011 101.394 163.007 112.417 160.337C123.439 157.668 134.633 156.333 146 156.333C157.367 156.333 168.561 157.668 179.583 160.337C190.606 163.007 201.456 167.011 212.133 172.35C217.128 174.933 221.132 178.679 224.146 183.587C227.16 188.496 228.667 193.878 228.667 199.733V228.667H63.3333ZM84 208H208V199.733C208 197.839 207.526 196.117 206.579 194.567C205.632 193.017 204.383 191.811 202.833 190.95C193.533 186.3 184.147 182.812 174.675 180.487C165.203 178.162 155.644 177 146 177C136.356 177 126.797 178.162 117.325 180.487C107.853 182.812 98.4666 186.3 89.1666 190.95C87.6166 191.811 86.368 193.017 85.4208 194.567C84.4736 196.117 84 197.839 84 199.733V208ZM146 125.333C151.683 125.333 156.549 123.31 160.596 119.262C164.643 115.215 166.667 110.35 166.667 104.667C166.667 98.9833 164.643 94.118 160.596 90.0708C156.549 86.0235 151.683 83.9999 146 83.9999C140.317 83.9999 135.451 86.0235 131.404 90.0708C127.357 94.118 125.333 98.9833 125.333 104.667C125.333 110.35 127.357 115.215 131.404 119.262C135.451 123.31 140.317 125.333 146 125.333Z" fill="#1D1B20"/>
</svg>
