<svg width="41" height="39" viewBox="0 0 41 39" fill="none" xmlns="http://www.w3.org/2000/svg">
<path d="M33.4726 33.75L22.7425 23.775C21.8909 24.4083 20.9116 24.9097 19.8045 25.2792C18.6974 25.6486 17.5194 25.8333 16.2704 25.8333C13.1762 25.8333 10.5576 24.8372 8.41442 22.8448C6.27124 20.8524 5.19965 18.4181 5.19965 15.5417C5.19965 12.6653 6.27124 10.2309 8.41442 8.23854C10.5576 6.24618 13.1762 5.25 16.2704 5.25C19.3645 5.25 21.9832 6.24618 24.1263 8.23854C26.2695 10.2309 27.3411 12.6653 27.3411 15.5417C27.3411 16.7028 27.1424 17.7979 26.745 18.8271C26.3476 19.8562 25.8082 20.7667 25.127 21.5583L35.8571 31.5333L33.4726 33.75ZM16.2704 22.6667C18.3994 22.6667 20.209 21.974 21.6993 20.5885C23.1896 19.2031 23.9347 17.5208 23.9347 15.5417C23.9347 13.5625 23.1896 11.8802 21.6993 10.4948C20.209 9.10938 18.3994 8.41667 16.2704 8.41667C14.1414 8.41667 12.3318 9.10938 10.8415 10.4948C9.35117 11.8802 8.60602 13.5625 8.60602 15.5417C8.60602 17.5208 9.35117 19.2031 10.8415 20.5885C12.3318 21.974 14.1414 22.6667 16.2704 22.6667Z" fill="#FEF7FF"/>
</svg>
